<?xml version="1.0" encoding="UTF-8" standalone="no"?>
<!-- Created with Inkscape (http://www.inkscape.org/) -->
<svg xmlns:inkscape="http://www.inkscape.org/namespaces/inkscape" xmlns:rdf="http://www.w3.org/1999/02/22-rdf-syntax-ns#" xmlns="http://www.w3.org/2000/svg" xmlns:cc="http://web.resource.org/cc/" xmlns:xlink="http://www.w3.org/1999/xlink" xmlns:dc="http://purl.org/dc/elements/1.1/" xmlns:svg="http://www.w3.org/2000/svg" xmlns:sodipodi="http://sodipodi.sourceforge.net/DTD/sodipodi-0.dtd" xmlns:ns1="http://sozi.baierouge.fr" id="svg2" viewBox="0 0 274.08 711.06" version="1.0" inkscape:version="0.91 r13725">
  <defs id="defs4">
    <linearGradient id="linearGradient4203">
      <stop id="stop4205" style="stop-color:#ffffff" offset="0"/>
      <stop id="stop4213" style="stop-color:#ffffff;stop-opacity:.49804" offset=".5"/>
      <stop id="stop4207" style="stop-color:#ffffff;stop-opacity:.45690" offset="1"/>
    </linearGradient>
    <linearGradient id="linearGradient4173">
      <stop id="stop4175" style="stop-color:#ffffff" offset="0"/>
      <stop id="stop4191" style="stop-color:#ffffff" offset=".5"/>
      <stop id="stop4193" style="stop-color:#ffffff;stop-opacity:.78431" offset=".75"/>
      <stop id="stop4177" style="stop-color:#ffffff;stop-opacity:0" offset="1"/>
    </linearGradient>
    <linearGradient id="linearGradient3383">
      <stop id="stop3385" style="stop-color:#006400" offset="0"/>
      <stop id="stop3391" style="stop-color:#fbffff;stop-opacity:.49804" offset=".5"/>
      <stop id="stop3387" style="stop-color:#ffffff;stop-opacity:0" offset="1"/>
    </linearGradient>
    <filter id="filter2962">
      <feGaussianBlur id="feGaussianBlur2964" stdDeviation="1.194953" inkscape:collect="always"/>
    </filter>
    <filter id="filter3077" y="-.23107" x="-.38216" height="1.4621" width="1.7643">
      <feGaussianBlur id="feGaussianBlur3079" stdDeviation="4.2386755" inkscape:collect="always"/>
    </filter>
    <filter id="filter3211" y="-0.36" x="-0.36" height="1.72" width="1.72">
      <feGaussianBlur id="feGaussianBlur3213" stdDeviation="1.5881697" inkscape:collect="always"/>
    </filter>
    <linearGradient id="linearGradient3734" y2="270.47" xlink:href="#linearGradient3383" gradientUnits="userSpaceOnUse" x2="185.9" gradientTransform="matrix(1 0 0 1.03 0 -8.1034)" y1="255.51" x1="185.9"/>
    <linearGradient id="linearGradient3761" y2="270.75" xlink:href="#linearGradient3383" gradientUnits="userSpaceOnUse" x2="186.28" gradientTransform="matrix(-.93575 .27459 .26006 .98801 289.32 -47.836)" y1="268.18" x1="195.42"/>
    <linearGradient id="linearGradient3786" y2="270.75" xlink:href="#linearGradient3383" gradientUnits="userSpaceOnUse" x2="186.28" gradientTransform="matrix(-1 0 0 1 371.82 -.056043)" y1="268.18" x1="195.42"/>
    <linearGradient id="linearGradient3789" y2="270.63" xlink:href="#linearGradient3383" gradientUnits="userSpaceOnUse" x2="186.22" gradientTransform="matrix(-1 0 0 1 371.82 -.056043)" y1="265.81" x1="195.02"/>
    <linearGradient id="linearGradient3792" y2="270.79" xlink:href="#linearGradient3383" gradientUnits="userSpaceOnUse" x2="186.12" gradientTransform="matrix(-1 0 0 1 371.82 -.056043)" y1="263.42" x1="194.47"/>
    <linearGradient id="linearGradient3795" y2="270.68" xlink:href="#linearGradient3383" gradientUnits="userSpaceOnUse" x2="186" gradientTransform="matrix(-1 0 0 1 371.82 -.056043)" y1="261.19" x1="193.51"/>
    <linearGradient id="linearGradient3798" y2="270.59" xlink:href="#linearGradient3383" gradientUnits="userSpaceOnUse" x2="186.21" gradientTransform="matrix(-1.0081 0 0 1.0146 373.31 -3.9922)" y1="259.39" x1="191.98"/>
    <linearGradient id="linearGradient3801" y2="270.53" xlink:href="#linearGradient3383" gradientUnits="userSpaceOnUse" x2="186.07" gradientTransform="matrix(-1.0229 0 0 1.0208 376.07 -5.6747)" y1="257.64" x1="190.22"/>
    <linearGradient id="linearGradient3804" y2="270.48" xlink:href="#linearGradient3383" gradientUnits="userSpaceOnUse" x2="185.97" gradientTransform="matrix(-1.0592 0 0 1.0338 382.82 -9.2014)" y1="255.92" x1="188.19"/>
    <linearGradient id="linearGradient3807" y2="270.75" xlink:href="#linearGradient3383" gradientUnits="userSpaceOnUse" x2="186.28" gradientTransform="matrix(-1 0 0 -1 371.79 541.82)" y1="268.18" x1="195.42"/>
    <linearGradient id="linearGradient3810" y2="270.63" xlink:href="#linearGradient3383" gradientUnits="userSpaceOnUse" x2="186.22" gradientTransform="matrix(-1 0 0 -1 371.79 541.82)" y1="265.81" x1="195.02"/>
    <linearGradient id="linearGradient3813" y2="270.79" xlink:href="#linearGradient3383" gradientUnits="userSpaceOnUse" x2="186.12" gradientTransform="matrix(-1 0 0 -1 371.79 541.82)" y1="263.42" x1="194.47"/>
    <linearGradient id="linearGradient3816" y2="270.68" xlink:href="#linearGradient3383" gradientUnits="userSpaceOnUse" x2="186" gradientTransform="matrix(-1 0 0 -1 371.79 541.82)" y1="261.19" x1="193.51"/>
    <linearGradient id="linearGradient3819" y2="270.59" xlink:href="#linearGradient3383" gradientUnits="userSpaceOnUse" x2="186.21" gradientTransform="matrix(-1.0081 0 0 -1.0146 373.28 545.76)" y1="259.39" x1="191.98"/>
    <linearGradient id="linearGradient3822" y2="270.53" xlink:href="#linearGradient3383" gradientUnits="userSpaceOnUse" x2="186.07" gradientTransform="matrix(-1.0229 0 0 -1.0208 376.04 547.44)" y1="257.64" x1="190.22"/>
    <linearGradient id="linearGradient3825" y2="270.48" xlink:href="#linearGradient3383" gradientUnits="userSpaceOnUse" x2="185.97" gradientTransform="matrix(-1.0592 0 0 -1.0338 382.79 550.97)" y1="255.92" x1="188.19"/>
    <linearGradient id="linearGradient3916" y2="270.75" xlink:href="#linearGradient3383" gradientUnits="userSpaceOnUse" x2="186.28" gradientTransform="matrix(.93575 -.27459 -.26006 -.98801 82.462 589.8)" y1="268.18" x1="195.42"/>
    <linearGradient id="linearGradient3919" y2="270.75" xlink:href="#linearGradient3383" gradientUnits="userSpaceOnUse" x2="186.28" gradientTransform="matrix(1 0 0 -1 -.03727 542.02)" y1="268.18" x1="195.42"/>
    <linearGradient id="linearGradient3922" y2="270.63" xlink:href="#linearGradient3383" gradientUnits="userSpaceOnUse" x2="186.22" gradientTransform="matrix(1 0 0 -1 -.03727 542.02)" y1="265.81" x1="195.02"/>
    <linearGradient id="linearGradient3925" y2="270.79" xlink:href="#linearGradient3383" gradientUnits="userSpaceOnUse" x2="186.12" gradientTransform="matrix(1 0 0 -1 -.03727 542.02)" y1="263.42" x1="194.47"/>
    <linearGradient id="linearGradient3928" y2="270.68" xlink:href="#linearGradient3383" gradientUnits="userSpaceOnUse" x2="186" gradientTransform="matrix(1 0 0 -1 -.03727 542.02)" y1="261.19" x1="193.51"/>
    <linearGradient id="linearGradient3931" y2="270.59" xlink:href="#linearGradient3383" gradientUnits="userSpaceOnUse" x2="186.21" gradientTransform="matrix(1.0081 0 0 -1.0146 -1.5325 545.96)" y1="259.39" x1="191.98"/>
    <linearGradient id="linearGradient3934" y2="270.53" xlink:href="#linearGradient3383" gradientUnits="userSpaceOnUse" x2="186.07" gradientTransform="matrix(1.0229 0 0 -1.0208 -4.2868 547.64)" y1="257.64" x1="190.22"/>
    <linearGradient id="linearGradient3937" y2="270.48" xlink:href="#linearGradient3383" gradientUnits="userSpaceOnUse" x2="185.97" gradientTransform="matrix(1.0592 0 0 -1.0338 -11.037 551.16)" y1="255.92" x1="188.19"/>
    <linearGradient id="linearGradient3940" y2="270.47" xlink:href="#linearGradient3383" gradientUnits="userSpaceOnUse" x2="185.9" gradientTransform="matrix(-1 0 0 -1.03 371.78 550.07)" y1="255.51" x1="185.9"/>
    <linearGradient id="linearGradient3943" y2="270.75" xlink:href="#linearGradient3383" gradientUnits="userSpaceOnUse" x2="186.28" gradientTransform="translate(-.00942 .14306)" y1="268.18" x1="195.42"/>
    <linearGradient id="linearGradient3946" y2="270.63" xlink:href="#linearGradient3383" gradientUnits="userSpaceOnUse" x2="186.22" gradientTransform="translate(-.00942 .14306)" y1="265.81" x1="195.02"/>
    <linearGradient id="linearGradient3949" y2="270.79" xlink:href="#linearGradient3383" gradientUnits="userSpaceOnUse" x2="186.12" gradientTransform="translate(-.00942 .14306)" y1="263.42" x1="194.47"/>
    <linearGradient id="linearGradient3952" y2="270.68" xlink:href="#linearGradient3383" gradientUnits="userSpaceOnUse" x2="186" gradientTransform="translate(-.00942 .14306)" y1="261.19" x1="193.51"/>
    <linearGradient id="linearGradient3955" y2="270.59" xlink:href="#linearGradient3383" gradientUnits="userSpaceOnUse" x2="186.21" gradientTransform="matrix(1.0081 0 0 1.0146 -1.5046 -3.7931)" y1="259.39" x1="191.98"/>
    <linearGradient id="linearGradient3958" y2="270.53" xlink:href="#linearGradient3383" gradientUnits="userSpaceOnUse" x2="186.07" gradientTransform="matrix(1.0229 0 0 1.0208 -4.2589 -5.4756)" y1="257.64" x1="190.22"/>
    <linearGradient id="linearGradient3961" y2="270.48" xlink:href="#linearGradient3383" gradientUnits="userSpaceOnUse" x2="185.97" gradientTransform="matrix(1.0592 0 0 1.0338 -11.01 -9.0023)" y1="255.92" x1="188.19"/>
    <radialGradient id="radialGradient4181" xlink:href="#linearGradient4173" gradientUnits="userSpaceOnUse" cy="266.66" cx="185.98" gradientTransform="matrix(1 0 0 1.0714 0 -19.047)" r="5.4699"/>
    <radialGradient id="radialGradient4211" xlink:href="#linearGradient4203" gradientUnits="userSpaceOnUse" cy="266.66" cx="185.98" gradientTransform="matrix(1 0 0 1.0677 0 -18.046)" r="5.7734"/>
    <filter id="filter4419" y="-.18722" x="-.16864" height="1.3744" width="1.3373">
      <feGaussianBlur id="feGaussianBlur4421" stdDeviation="5.2831748" inkscape:collect="always"/>
    </filter>
    <filter id="filter4423" y="-.18722" x="-.16864" height="1.3744" width="1.3373">
      <feGaussianBlur id="feGaussianBlur4425" stdDeviation="5.2831748" inkscape:collect="always"/>
    </filter>
    <filter id="filter4553" y="-.044344" x="-.26417" height="1.0887" width="1.5283">
      <feGaussianBlur id="feGaussianBlur4555" stdDeviation="4.3420854" inkscape:collect="always"/>
    </filter>
    <filter id="filter4557" y="-.044498" x="-.29708" height="1.089" width="1.5942">
      <feGaussianBlur id="feGaussianBlur4559" stdDeviation="4.3420854" inkscape:collect="always"/>
    </filter>
    <filter id="filter4561" y="-.057646" x="-.23260" height="1.1153" width="1.4652">
      <feGaussianBlur id="feGaussianBlur4563" stdDeviation="4.3420854" inkscape:collect="always"/>
    </filter>
    <filter id="filter4565" y="-.049265" x="-.32550" height="1.0985" width="1.651">
      <feGaussianBlur id="feGaussianBlur4567" stdDeviation="4.3420854" inkscape:collect="always"/>
    </filter>
    <filter id="filter4569" y="-.056041" x="-.26944" height="1.1121" width="1.5389">
      <feGaussianBlur id="feGaussianBlur4571" stdDeviation="4.3420854" inkscape:collect="always"/>
    </filter>
    <filter id="filter4573" y="-.058120" x="-.19622" height="1.1162" width="1.3924">
      <feGaussianBlur id="feGaussianBlur4575" stdDeviation="4.3420854" inkscape:collect="always"/>
    </filter>
  </defs>
  <g id="layer1" transform="translate(-108.6 -268.91)">
    <g id="g2233" style="stroke:#006400;fill:#00a000" transform="matrix(.75290 0 0 .75290 -33.602 184.42)">
      <path id="path2176" style="fill-rule:evenodd;stroke:#006400;stroke-width:1px;fill:#00a000" d="m385.72 123.78c-88.25-3.02-161.61 89.53-143 175.84 12.02 55.74 22.53 112.82 33.12 167.92 4.3 22.35-2.16 41.86-8.14 61.27-8.15 26.48 22.44 49.81 49.08 39.8 24.41-9.18 41.74 3.43 62.04 3.75 28.11 0.43 29.77-33.8 37.2-54.87 34.97-99.15 127.3-176.1 109.94-286.06-10.74-67.98-72.05-105.32-140.24-107.65z"/>
    </g>
    <path id="path2888" style="fill-rule:evenodd;stroke:#006400;stroke-width:.75290px;fill:#ffffff" d="m164.51 516.23c3.07 1.89 10.27 3.67 12.8 4.36 22.62 2.83 53.25 4.31 75.65 0.1 6.78-1.7 9.23-3.11 13.31-6.66-7.08 6.18-19.04 20.45-22.47 33.3-1.41 5.27-4.95 15.81-10.82 15.81-14.33 0-27.3-1.66-41.62-1.66-8.15 0-16.22 2.22-18.49-5.69-3.28-11.47-2.02-24.19 4.36-35.17"/>
    <g id="g2906" style="filter:url(#filter2962);stroke:#cccccc" transform="matrix(.75290 0 0 .75290 30.713 241.95)">
      <path id="path2892" style="stroke:#cccccc;stroke-width:1px;fill:none" d="m235.07 423.51c-3.21-4.19-3.2-13.32-3.21-19.72-0.02-10.45 2.05-21.89 7.34-30.27"/>
      <path id="path2896" style="stroke:#cccccc;stroke-width:1px;fill:none" d="m188.29 398.06c15.34 6.27 18.13 4.94 41.74 6.65 14.9 1.08 37.09-0.38 51.37-3.67"/>
      <path id="path2898" style="stroke:#cccccc;stroke-width:1px;fill:none" d="m259.84 424.43c-3.21-4.19-3.2-13.33-3.21-19.72-0.02-10.46 2.05-21.9 7.34-30.28"/>
      <path id="path2900" style="stroke:#cccccc;stroke-width:1px;fill:none" d="m211.91 423.05c-3.21-4.19-3.2-13.32-3.21-19.72-0.02-10.45 2.05-21.89 7.34-30.27"/>
      <path id="path2902" style="stroke:#cccccc;stroke-width:1px;fill:none" d="m190.35 420.3c-3.21-4.19-3.2-13.33-3.21-19.72-0.02-10.46 2.05-21.9 7.34-30.27"/>
      <path id="path2904" style="stroke:#cccccc;stroke-width:1px;fill:none" d="m283 401.27c-0.01-10.46 2.05-19.6 7.34-27.98"/>
    </g>
    <path id="path2966" style="stroke:#006400;fill:#ffffff" d="m120.4 266.82c0 17.28-14.01 31.28-31.282 31.28-17.275 0-31.28-14-31.28-31.28 0-17.27 14.005-31.28 31.28-31.28 17.272 0 31.282 14.01 31.282 31.28z" transform="matrix(.75290 0 0 .75290 103.81 232.17)"/>
    <path id="path2968" style="stroke:#006400;fill:#ffffff" d="m120.4 266.82c0 17.28-14.01 31.28-31.282 31.28-17.275 0-31.28-14-31.28-31.28 0-17.27 14.005-31.28 31.28-31.28 17.272 0 31.282 14.01 31.282 31.28z" transform="matrix(.75290 0 0 .75290 189.12 232.17)"/>
    <path id="path2972" style="filter:url(#filter4423);fill:#000000" d="m171.17 193.6c-21.23-3.82-41.54 10.3-45.36 31.53-2.44 13.59 2.47 26.81 11.89 35.57-2.78-6.69-3.75-14.24-2.38-21.89 3.82-21.23 24.13-35.35 45.36-31.53 7.66 1.37 14.4 4.89 19.7 9.83-4.93-11.88-15.62-21.07-29.21-23.51z" transform="matrix(.75290 0 0 .75290 30.935 239.28)"/>
    <path id="path2977" style="filter:url(#filter4419);fill:#000000" d="m313.37 193.6c21.24-3.82 41.55 10.3 45.37 31.53 2.44 13.59-2.47 26.81-11.89 35.57 2.78-6.69 3.75-14.24 2.38-21.89-3.82-21.23-24.13-35.35-45.36-31.53-7.66 1.37-14.4 4.89-19.7 9.83 4.93-11.88 15.62-21.07 29.2-23.51z" transform="matrix(.75290 0 0 .75290 30.935 239.28)"/>
    <path id="path2979" style="stroke-linejoin:round;filter:url(#filter3077);stroke:#006400;stroke-linecap:round;stroke-width:5;fill:none" d="m410.39 244.19c-6.7-15.91 6.92-16.52 5.31-9.1-2.1 9.74-12.94 18.42-16.48 29.44" transform="matrix(.75290 0 0 .75290 30.935 239.28)"/>
    <path id="path3201" style="stroke-linejoin:round;filter:url(#filter3211);stroke:#006400;stroke-linecap:round;stroke-width:10;fill:none" d="m221.6 332.9l0.59 0.59" transform="matrix(.75290 0 0 .75290 30.935 239.28)"/>
    <path id="path3215" style="stroke-linejoin:round;filter:url(#filter3211);stroke:#006400;stroke-linecap:round;stroke-width:10;fill:none" d="m239.82 332.9l0.59 0.59" transform="matrix(.75290 0 0 .75290 30.935 239.28)"/>
    <path id="path3555" style="stroke-width:0;fill:none" d="m185.88 271.87v14.38"/>
    <g id="g4221" transform="matrix(.75290 0 0 .75290 30.935 239.28)">
      <g id="g3998">
        <path id="path3217" style="stroke-linejoin:round;fill-opacity:.39216;stroke:#006400;stroke-linecap:round;stroke-width:10;fill:#006400" d="m190.45 269.71c0 6.66-5.4 12.06-12.05 12.06-6.66 0-12.06-5.4-12.05-12.06-0.01-6.66 5.39-12.06 12.05-12.06 6.65 0 12.05 5.4 12.05 12.06z" transform="matrix(.63377 0 0 1.0728 72.847 -18.458)"/>
        <g id="g3963">
          <g id="g3827">
            <path id="path3591" style="stroke-linejoin:round;stroke:url(#linearGradient3825);stroke-linecap:round;stroke-width:0.607;fill:none" d="m185.73 271.85l-2.2 14.05"/>
            <path id="path3593" style="stroke-linejoin:round;stroke:url(#linearGradient3822);stroke-linecap:round;stroke-width:0.607;fill:none" d="m185.6 271.76l-4.12 12.79"/>
            <path id="path3595" style="stroke-linejoin:round;stroke:url(#linearGradient3819);stroke-linecap:round;stroke-width:0.607;fill:none" d="m185.48 271.67l-5.79 11.04"/>
            <path id="path3597" style="stroke-linejoin:round;stroke:url(#linearGradient3816);stroke-linecap:round;stroke-width:0.607;fill:none" d="m185.35 271.58l-6.96 8.92"/>
            <path id="path3599" style="stroke-linejoin:round;stroke:url(#linearGradient3813);stroke-linecap:round;stroke-width:0.607;fill:none" d="m185.23 271.46l-7.84 6.83"/>
            <path id="path3601" style="stroke-linejoin:round;stroke:url(#linearGradient3810);stroke-linecap:round;stroke-width:0.607;fill:none" d="m185.14 271.32l-8.42 4.79"/>
            <path id="path3603" style="stroke-linejoin:round;stroke:url(#linearGradient3807);stroke-linecap:round;stroke-width:0.607;fill:none" d="m185.07 271.15l-8.8 2.52"/>
            <path id="path3223" style="stroke-linejoin:round;stroke:url(#linearGradient3734);stroke-linecap:round;stroke-width:0.607;fill:none" d="m185.9 269.95v-14.38"/>
            <path id="path3523" style="stroke-linejoin:round;stroke:url(#linearGradient3804);stroke-linecap:round;stroke-width:0.607;fill:none" d="m185.76 269.92l-2.2-14.06"/>
            <path id="path3525" style="stroke-linejoin:round;stroke:url(#linearGradient3801);stroke-linecap:round;stroke-width:0.607;fill:none" d="m185.62 270l-4.11-12.79"/>
            <path id="path3527" style="stroke-linejoin:round;stroke:url(#linearGradient3798);stroke-linecap:round;stroke-width:0.607;fill:none" d="m185.51 270.1l-5.79-11.04"/>
            <path id="path3529" style="stroke-linejoin:round;stroke:url(#linearGradient3795);stroke-linecap:round;stroke-width:0.607;fill:none" d="m185.38 270.19l-6.96-8.93"/>
            <path id="path3531" style="stroke-linejoin:round;stroke:url(#linearGradient3792);stroke-linecap:round;stroke-width:0.607;fill:none" d="m185.26 270.31l-7.85-6.83"/>
            <path id="path3533" style="stroke-linejoin:round;stroke:url(#linearGradient3789);stroke-linecap:round;stroke-width:0.607;fill:none" d="m185.17 270.45l-8.42-4.79"/>
            <path id="path3535" style="stroke-linejoin:round;stroke:url(#linearGradient3786);stroke-linecap:round;stroke-width:0.607;fill:none" d="m185.1 270.61l-8.8-2.51"/>
            <path id="path3665" style="stroke-linejoin:round;stroke:url(#linearGradient3761);stroke-linecap:round;stroke-width:0.607;fill:none" d="m185.08 270.86l-8.98-0.07"/>
          </g>
          <path id="path3847" style="stroke-linejoin:round;stroke:url(#linearGradient3961);stroke-linecap:round;stroke-width:0.607;fill:none" d="m186.05 270.12l2.2-14.06"/>
          <path id="path3849" style="stroke-linejoin:round;stroke:url(#linearGradient3958);stroke-linecap:round;stroke-width:0.607;fill:none" d="m186.18 270.2l4.12-12.79"/>
          <path id="path3851" style="stroke-linejoin:round;stroke:url(#linearGradient3955);stroke-linecap:round;stroke-width:0.607;fill:none" d="m186.3 270.3l5.79-11.04"/>
          <path id="path3853" style="stroke-linejoin:round;stroke:url(#linearGradient3952);stroke-linecap:round;stroke-width:0.607;fill:none" d="m186.42 270.39l6.97-8.93"/>
          <path id="path3855" style="stroke-linejoin:round;stroke:url(#linearGradient3949);stroke-linecap:round;stroke-width:0.607;fill:none" d="m186.54 270.5l7.85-6.83"/>
          <path id="path3857" style="stroke-linejoin:round;stroke:url(#linearGradient3946);stroke-linecap:round;stroke-width:0.607;fill:none" d="m186.64 270.65l8.42-4.79"/>
          <path id="path3859" style="stroke-linejoin:round;stroke:url(#linearGradient3943);stroke-linecap:round;stroke-width:0.607;fill:none" d="m186.71 270.81l8.79-2.52"/>
          <path id="path3861" style="stroke-linejoin:round;stroke:url(#linearGradient3940);stroke-linecap:round;stroke-width:0.607;fill:none" d="m185.87 272.01v14.38"/>
          <path id="path3863" style="stroke-linejoin:round;stroke:url(#linearGradient3937);stroke-linecap:round;stroke-width:0.607;fill:none" d="m186.02 272.04l2.2 14.06"/>
          <path id="path3865" style="stroke-linejoin:round;stroke:url(#linearGradient3934);stroke-linecap:round;stroke-width:0.607;fill:none" d="m186.15 271.96l4.12 12.79"/>
          <path id="path3867" style="stroke-linejoin:round;stroke:url(#linearGradient3931);stroke-linecap:round;stroke-width:0.607;fill:none" d="m186.27 271.86l5.79 11.05"/>
          <path id="path3869" style="stroke-linejoin:round;stroke:url(#linearGradient3928);stroke-linecap:round;stroke-width:0.607;fill:none" d="m186.4 271.77l6.96 8.93"/>
          <path id="path3871" style="stroke-linejoin:round;stroke:url(#linearGradient3925);stroke-linecap:round;stroke-width:0.607;fill:none" d="m186.52 271.66l7.84 6.83"/>
          <path id="path3873" style="stroke-linejoin:round;stroke:url(#linearGradient3922);stroke-linecap:round;stroke-width:0.607;fill:none" d="m186.61 271.52l8.42 4.79"/>
          <path id="path3875" style="stroke-linejoin:round;stroke:url(#linearGradient3919);stroke-linecap:round;stroke-width:0.607;fill:none" d="m186.68 271.35l8.8 2.52"/>
          <path id="path3877" style="stroke-linejoin:round;stroke:url(#linearGradient3916);stroke-linecap:round;stroke-width:0.607;fill:none" d="m186.7 271.11l8.98 0.07"/>
        </g>
      </g>
      <path id="path4171" style="stroke-linejoin:round;stroke:url(#radialGradient4211);stroke-linecap:round;stroke-width:0.607;fill:url(#radialGradient4181)" d="m191.45 266.66c0 3.23-2.45 5.86-5.47 5.86-3.03 0-5.47-2.63-5.47-5.86 0-3.24 2.44-5.87 5.47-5.87 3.02 0 5.47 2.63 5.47 5.87z" transform="translate(-6.3442 -6.7814)"/>
    </g>
    <g id="g4260" transform="matrix(.75290 0 0 .75290 30.935 239.28)">
      <g id="g4035" transform="translate(112.17)">
        <path id="path4037" style="stroke-linejoin:round;fill-opacity:.39216;stroke:#006400;stroke-linecap:round;stroke-width:10;fill:#006400" d="m190.45 269.71c0 6.66-5.4 12.06-12.05 12.06-6.66 0-12.06-5.4-12.05-12.06-0.01-6.66 5.39-12.06 12.05-12.06 6.65 0 12.05 5.4 12.05 12.06z" transform="matrix(.63377 0 0 1.0728 72.847 -18.458)"/>
        <g id="g4039">
          <g id="g4041">
            <path id="path4043" style="stroke-linejoin:round;stroke:url(#linearGradient3825);stroke-linecap:round;stroke-width:0.607;fill:none" d="m185.73 271.85l-2.2 14.05"/>
            <path id="path4045" style="stroke-linejoin:round;stroke:url(#linearGradient3822);stroke-linecap:round;stroke-width:0.607;fill:none" d="m185.6 271.76l-4.12 12.79"/>
            <path id="path4047" style="stroke-linejoin:round;stroke:url(#linearGradient3819);stroke-linecap:round;stroke-width:0.607;fill:none" d="m185.48 271.67l-5.79 11.04"/>
            <path id="path4049" style="stroke-linejoin:round;stroke:url(#linearGradient3816);stroke-linecap:round;stroke-width:0.607;fill:none" d="m185.35 271.58l-6.96 8.92"/>
            <path id="path4051" style="stroke-linejoin:round;stroke:url(#linearGradient3813);stroke-linecap:round;stroke-width:0.607;fill:none" d="m185.23 271.46l-7.84 6.83"/>
            <path id="path4053" style="stroke-linejoin:round;stroke:url(#linearGradient3810);stroke-linecap:round;stroke-width:0.607;fill:none" d="m185.14 271.32l-8.42 4.79"/>
            <path id="path4055" style="stroke-linejoin:round;stroke:url(#linearGradient3807);stroke-linecap:round;stroke-width:0.607;fill:none" d="m185.07 271.15l-8.8 2.52"/>
            <path id="path4057" style="stroke-linejoin:round;stroke:url(#linearGradient3734);stroke-linecap:round;stroke-width:0.607;fill:none" d="m185.9 269.95v-14.38"/>
            <path id="path4059" style="stroke-linejoin:round;stroke:url(#linearGradient3804);stroke-linecap:round;stroke-width:0.607;fill:none" d="m185.76 269.92l-2.2-14.06"/>
            <path id="path4061" style="stroke-linejoin:round;stroke:url(#linearGradient3801);stroke-linecap:round;stroke-width:0.607;fill:none" d="m185.62 270l-4.11-12.79"/>
            <path id="path4063" style="stroke-linejoin:round;stroke:url(#linearGradient3798);stroke-linecap:round;stroke-width:0.607;fill:none" d="m185.51 270.1l-5.79-11.04"/>
            <path id="path4065" style="stroke-linejoin:round;stroke:url(#linearGradient3795);stroke-linecap:round;stroke-width:0.607;fill:none" d="m185.38 270.19l-6.96-8.93"/>
            <path id="path4067" style="stroke-linejoin:round;stroke:url(#linearGradient3792);stroke-linecap:round;stroke-width:0.607;fill:none" d="m185.26 270.31l-7.85-6.83"/>
            <path id="path4069" style="stroke-linejoin:round;stroke:url(#linearGradient3789);stroke-linecap:round;stroke-width:0.607;fill:none" d="m185.17 270.45l-8.42-4.79"/>
            <path id="path4071" style="stroke-linejoin:round;stroke:url(#linearGradient3786);stroke-linecap:round;stroke-width:0.607;fill:none" d="m185.1 270.61l-8.8-2.51"/>
            <path id="path4073" style="stroke-linejoin:round;stroke:url(#linearGradient3761);stroke-linecap:round;stroke-width:0.607;fill:none" d="m185.08 270.86l-8.98-0.07"/>
          </g>
          <path id="path4075" style="stroke-linejoin:round;stroke:url(#linearGradient3961);stroke-linecap:round;stroke-width:0.607;fill:none" d="m186.05 270.12l2.2-14.06"/>
          <path id="path4077" style="stroke-linejoin:round;stroke:url(#linearGradient3958);stroke-linecap:round;stroke-width:0.607;fill:none" d="m186.18 270.2l4.12-12.79"/>
          <path id="path4079" style="stroke-linejoin:round;stroke:url(#linearGradient3955);stroke-linecap:round;stroke-width:0.607;fill:none" d="m186.3 270.3l5.79-11.04"/>
          <path id="path4081" style="stroke-linejoin:round;stroke:url(#linearGradient3952);stroke-linecap:round;stroke-width:0.607;fill:none" d="m186.42 270.39l6.97-8.93"/>
          <path id="path4083" style="stroke-linejoin:round;stroke:url(#linearGradient3949);stroke-linecap:round;stroke-width:0.607;fill:none" d="m186.54 270.5l7.85-6.83"/>
          <path id="path4085" style="stroke-linejoin:round;stroke:url(#linearGradient3946);stroke-linecap:round;stroke-width:0.607;fill:none" d="m186.64 270.65l8.42-4.79"/>
          <path id="path4087" style="stroke-linejoin:round;stroke:url(#linearGradient3943);stroke-linecap:round;stroke-width:0.607;fill:none" d="m186.71 270.81l8.79-2.52"/>
          <path id="path4089" style="stroke-linejoin:round;stroke:url(#linearGradient3940);stroke-linecap:round;stroke-width:0.607;fill:none" d="m185.87 272.01v14.38"/>
          <path id="path4091" style="stroke-linejoin:round;stroke:url(#linearGradient3937);stroke-linecap:round;stroke-width:0.607;fill:none" d="m186.02 272.04l2.2 14.06"/>
          <path id="path4093" style="stroke-linejoin:round;stroke:url(#linearGradient3934);stroke-linecap:round;stroke-width:0.607;fill:none" d="m186.15 271.96l4.12 12.79"/>
          <path id="path4095" style="stroke-linejoin:round;stroke:url(#linearGradient3931);stroke-linecap:round;stroke-width:0.607;fill:none" d="m186.27 271.86l5.79 11.05"/>
          <path id="path4097" style="stroke-linejoin:round;stroke:url(#linearGradient3928);stroke-linecap:round;stroke-width:0.607;fill:none" d="m186.4 271.77l6.96 8.93"/>
          <path id="path4099" style="stroke-linejoin:round;stroke:url(#linearGradient3925);stroke-linecap:round;stroke-width:0.607;fill:none" d="m186.52 271.66l7.84 6.83"/>
          <path id="path4101" style="stroke-linejoin:round;stroke:url(#linearGradient3922);stroke-linecap:round;stroke-width:0.607;fill:none" d="m186.61 271.52l8.42 4.79"/>
          <path id="path4103" style="stroke-linejoin:round;stroke:url(#linearGradient3919);stroke-linecap:round;stroke-width:0.607;fill:none" d="m186.68 271.35l8.8 2.52"/>
          <path id="path4105" style="stroke-linejoin:round;stroke:url(#linearGradient3916);stroke-linecap:round;stroke-width:0.607;fill:none" d="m186.7 271.11l8.98 0.07"/>
        </g>
      </g>
      <path id="path4215" style="stroke-linejoin:round;stroke:url(#radialGradient4211);stroke-linecap:round;stroke-width:0.607;fill:url(#radialGradient4181)" d="m191.45 266.66c0 3.23-2.45 5.86-5.47 5.86-3.03 0-5.47-2.63-5.47-5.86 0-3.24 2.44-5.87 5.47-5.87 3.02 0 5.47 2.63 5.47 5.87z" transform="translate(106.09 -7.3925)"/>
    </g>
    <path id="path4445" style="stroke-linejoin:round;filter:url(#filter4573);stroke:#006400;stroke-linecap:round;stroke-width:10;fill:none" d="m242.07 509.71c-18.03 24.74-27.39 37.8-43.11 62.38 7.61 32.55 30.07 61.81 32.48 95.59 0 1.08-6.47 10.25-6.47 11.33" transform="matrix(.75290 0 0 .75290 30.935 239.28)"/>
    <path id="path4447" style="stroke-linejoin:round;filter:url(#filter4561);stroke:#006400;stroke-linecap:round;stroke-width:10;fill:none" d="m227.83 540.55c20.85 54.13 21.46 133.16 23.07 191.31" transform="matrix(.75290 0 0 .75290 30.935 239.28)"/>
    <path id="path4449" style="stroke-linejoin:round;filter:url(#filter4565);stroke:#006400;stroke-linecap:round;stroke-width:10;fill:none" d="m278.88 526.43c-9.37 46.16-19.3 88.33-17.46 136.63 1.03 21.77-0.46 44.47 6.48 66.37" transform="matrix(.75290 0 0 .75290 30.935 239.28)"/>
    <path id="path4451" style="stroke-linejoin:round;filter:url(#filter4569);stroke:#006400;stroke-linecap:round;stroke-width:10;fill:none" d="m275.02 509.12c7.73 20.43 21.96 43.94 28.66 64.06 0.53 1.38-15.68 65.89-21.96 93.25-1.32 5.77 4 13.23 2.75 18.64" transform="matrix(.75290 0 0 .75290 30.935 239.28)"/>
    <path id="path4453" style="stroke-linejoin:round;filter:url(#filter4557);stroke:#006400;stroke-linecap:round;stroke-width:10;fill:none" d="m250.09 739.14c-5.49 8.44-8.41 12.11-12.95 20.23-0.06 27 2.43 80.96 7.29 108.46 3.23 21.9 9.28 59.8 14.56 80.93 2.37 9.48 7.26 12.14-3.23 12.14-5.45 0-8.39 0.61-12.95 2.43" transform="matrix(.75290 0 0 .75290 30.935 239.28)"/>
    <path id="path4455" style="stroke-linejoin:round;filter:url(#filter4553);stroke:#006400;stroke-linecap:round;stroke-width:10;fill:none" d="m271.94 736.71c-2.15 0.86 7.29 13.56 16.19 23.47 4.67 42.75 3.63 65.32 2.43 112.5-5.12 38.99-5.67 63.34-5.67 80.13 0 7.23-1.5 8.9 6.48 8.9h9.71" transform="matrix(.75290 0 0 .75290 30.935 239.28)"/>
  </g>
  <metadata>
    <rdf:RDF>
      <cc:Work>
        <dc:format>image/svg+xml</dc:format>
        <dc:type rdf:resource="http://purl.org/dc/dcmitype/StillImage"/>
        <cc:license rdf:resource="http://creativecommons.org/licenses/publicdomain/"/>
        <dc:publisher>
          <cc:Agent rdf:about="http://openclipart.org/">
            <dc:title>Openclipart</dc:title>
          </cc:Agent>
        </dc:publisher>
        <dc:title>Alien</dc:title>
        <dc:date>2007-07-23T12:49:10</dc:date>
        <dc:description/>
        <dc:source>https://openclipart.org/detail/4548/alien-by-egonpin</dc:source>
        <dc:creator>
          <cc:Agent>
            <dc:title>egonpin</dc:title>
          </cc:Agent>
        </dc:creator>
        <dc:subject>
          <rdf:Bag>
            <rdf:li>alien</rdf:li>
            <rdf:li>extraterrestrial</rdf:li>
            <rdf:li>green</rdf:li>
            <rdf:li>how i did it</rdf:li>
            <rdf:li>humanoid</rdf:li>
          </rdf:Bag>
        </dc:subject>
      </cc:Work>
      <cc:License rdf:about="http://creativecommons.org/licenses/publicdomain/">
        <cc:permits rdf:resource="http://creativecommons.org/ns#Reproduction"/>
        <cc:permits rdf:resource="http://creativecommons.org/ns#Distribution"/>
        <cc:permits rdf:resource="http://creativecommons.org/ns#DerivativeWorks"/>
      </cc:License>
    </rdf:RDF>
  </metadata>
</svg>
