<svg id="Capa_1" enable-background="new 0 0 497 497" height="512" viewBox="0 0 497 497" width="512" xmlns="http://www.w3.org/2000/svg"><g><path d="m497 248.5c0-137.243-111.257-248.5-248.5-248.5-56.464 0-108.53 18.832-150.259 50.558-16.242 12.349-28.662 27.165-41.422 43.07-34.14 42.554-47.66 94.704-47.66 153.505 0 137.243 102.398 243.601 239.641 243.601 42.719 0 82.621-4.514 117.733-23.501 77.692-42.012 130.467-124.21 130.467-218.733z" fill="#ffbf54"/><path d="m419.15 429.13c-44.52 42.07-104.57 67.87-170.65 67.87-137.24 0-248.5-111.26-248.5-248.5 0-82.39 40.1-155.42 101.85-200.63-47.94 45.29-77.85 109.47-77.85 180.63 0 137.24 111.26 248.5 248.5 248.5 54.85 0 105.54-17.77 146.65-47.87z" fill="#ffa442"/><path d="m248.8 429.202c-103.939 0-177.853-78.386-177.853-182.326 0-38.376 2.013-72.373 21.787-102.185 9.45-14.247 19.35-27.254 32.208-38.438 33.11-28.797 76.334-46.253 123.558-46.253 103.939 0 188.5 84.561 188.5 188.5 0 46.516-16.936 89.15-44.965 122.061-9.167 10.764-19.71 18.928-31.046 27.407-31.453 23.527-69.978 31.234-112.189 31.234z" fill="#ffa442"/><path d="m392.74 369.74c-34.61 41.1-86.43 67.26-144.24 67.26-103.94 0-188.5-84.56-188.5-188.5 0-57.81 26.16-109.63 67.26-144.24-27.61 32.8-44.26 75.11-44.26 121.24 0 103.94 84.56 188.5 188.5 188.5 46.13 0 88.44-16.65 121.24-44.26z" fill="#ff8a3c"/><path d="m248.5 227.11c.1.01.2.02.3.02h-.3z" fill="#fbf0dc"/><g><path d="m263.5 37.5h-30c-4.142 0-7.5-3.357-7.5-7.5s3.358-7.5 7.5-7.5h30c4.143 0 7.5 3.357 7.5 7.5s-3.357 7.5-7.5 7.5z" fill="#ffa442"/></g><g><path d="m117.985 80.071c-2.466 0-4.88-1.215-6.314-3.442-2.241-3.483-1.234-8.124 2.249-10.365l25.229-16.233c3.483-2.243 8.124-1.234 10.365 2.248 2.241 3.483 1.234 8.124-2.249 10.365l-25.229 16.233c-1.255.809-2.661 1.194-4.051 1.194z" fill="#ffa442"/></g><g><path d="m43.369 178.9c-1.043 0-2.102-.219-3.112-.68-3.768-1.722-5.426-6.171-3.705-9.938l12.466-27.287c1.722-3.769 6.172-5.423 9.938-3.706 3.768 1.722 5.426 6.171 3.705 9.938l-12.466 27.287c-1.259 2.758-3.981 4.386-6.826 4.386z" fill="#ffa442"/></g><g><path d="m34.346 302.277c-3.671 0-6.879-2.698-7.415-6.438l-4.252-29.697c-.587-4.1 2.261-7.899 6.361-8.486 4.104-.589 7.9 2.261 8.487 6.361l4.252 29.697c.587 4.1-2.261 7.899-6.361 8.486-.36.052-.719.077-1.072.077z" fill="#ffa442"/></g><g><path d="m93.036 410.25c-2.099 0-4.186-.876-5.669-2.586l-19.656-22.664c-2.714-3.129-2.377-7.866.752-10.58 3.13-2.714 7.866-2.377 10.58.752l19.656 22.664c2.714 3.129 2.377 7.866-.752 10.58-1.42 1.23-3.169 1.834-4.911 1.834z" fill="#ffa442"/></g><g><path d="m201.101 469.908c-.699 0-1.409-.099-2.114-.305l-28.788-8.441c-3.975-1.166-6.252-5.333-5.086-9.308 1.165-3.975 5.332-6.248 9.307-5.087l28.788 8.441c3.975 1.166 6.252 5.333 5.086 9.308-.959 3.271-3.95 5.392-7.193 5.392z" fill="#ffa442"/></g><g><path d="m206.07 468.02c-1.36 1.2-3.12 1.89-4.97 1.89-.7 0-1.41-.1-2.11-.31l-28.79-8.44c-3.74-1.09-5.97-4.84-5.26-8.59 13.11 6.31 26.86 11.5 41.13 15.45z" fill="#ff8a3c"/><g><path d="m35.12 302.23c-.26.03-.52.05-.77.05-3.68 0-6.88-2.7-7.42-6.44l-4.25-29.7c-.42-2.91.9-5.68 3.17-7.24 1.81 14.89 4.94 29.38 9.27 43.33z" fill="#ff8a3c"/></g><g><path d="m99.37 406.77c-.38.6-.86 1.16-1.42 1.65-1.42 1.23-3.17 1.83-4.91 1.83-2.1 0-4.19-.88-5.67-2.59l-19.66-22.66c-2.71-3.13-2.38-7.87.75-10.58.61-.53 1.28-.94 1.99-1.23 8.63 12.04 18.32 23.28 28.92 33.58z" fill="#ff8a3c"/></g></g><g><path d="m295.9 469.907c-3.244 0-6.235-2.121-7.194-5.392-1.165-3.975 1.112-8.142 5.087-9.308l28.788-8.44c3.976-1.16 8.143 1.113 9.308 5.087 1.165 3.975-1.112 8.142-5.087 9.308l-28.788 8.44c-.704.207-1.415.305-2.114.305z" fill="#ffa442"/></g><g><path d="m403.965 410.25c-1.742 0-3.491-.604-4.911-1.834-3.129-2.714-3.466-7.45-.752-10.58l19.655-22.664c2.716-3.129 7.45-3.464 10.58-.752 3.129 2.714 3.466 7.45.752 10.58l-19.655 22.664c-1.484 1.71-3.571 2.586-5.669 2.586z" fill="#ffa442"/></g><g><path d="m462.655 302.276c-.354 0-.712-.025-1.073-.077-4.1-.587-6.948-4.387-6.36-8.487l4.252-29.696c.587-4.101 4.384-6.946 8.487-6.36 4.1.587 6.948 4.387 6.36 8.487l-4.252 29.696c-.535 3.739-3.743 6.437-7.414 6.437z" fill="#ffa442"/></g><g><path d="m453.632 178.899c-2.846 0-5.566-1.628-6.826-4.386l-12.467-27.287c-1.722-3.767-.062-8.217 3.705-9.938 3.769-1.723 8.217-.062 9.938 3.705l12.467 27.287c1.722 3.767.062 8.217-3.705 9.938-1.011.463-2.07.681-3.112.681z" fill="#ffa442"/></g><g><path d="m379.015 80.071c-1.39 0-2.796-.386-4.052-1.194l-25.229-16.233c-3.483-2.241-4.49-6.882-2.249-10.365 2.241-3.482 6.882-4.491 10.366-2.248l25.229 16.233c3.483 2.241 4.49 6.882 2.249 10.365-1.433 2.227-3.849 3.442-6.314 3.442z" fill="#ffa442"/></g><g><path d="m263.5 37.5h-30c-4.142 0-7.5-3.357-7.5-7.5s3.358-7.5 7.5-7.5h30c4.143 0 7.5 3.357 7.5 7.5s-3.357 7.5-7.5 7.5z" fill="#ffa442"/></g><path d="m248.8 227.13h-.3v-.02c.1.01.2.02.3.02z" fill="#f4e2c1"/><path d="m372.783 208.736h-29.656c-.47 0-.871-.329-.97-.788-2.159-9.993-6.323-19.249-12.049-27.323-.472-.666-.011-1.584.806-1.584h21.971c8.077 0 15.027-6.207 15.407-14.275.406-8.614-6.458-15.725-14.983-15.725h-209.092c-8.077 0-15.027 6.207-15.407 14.275-.406 8.614 6.458 15.725 14.983 15.725h125.35c18.873 0 35.045 11.762 41.587 28.339.257.651-.239 1.357-.939 1.357h-145.676c-8.077 0-15.027 6.207-15.407 14.275-.406 8.614 6.458 15.725 14.983 15.725h146.099c.7 0 1.196.706.939 1.357-6.542 16.576-22.714 28.338-41.587 28.338h-105.021c-5.674 0-11.057 2.975-13.697 7.997-3.242 6.169-1.818 13.627 3.255 18.173l112.262 100.61c2.863 2.567 6.44 3.83 10.006 3.83 4.114 0 8.213-1.684 11.176-4.989 5.528-6.169 5.01-15.653-1.16-21.182l-81.114-72.695c-.683-.612-.25-1.745.667-1.745h63.625c35.772 0 65.75-25.277 73.015-58.907.099-.459.5-.788.97-.788h30.08c8.525 0 15.389-7.111 14.983-15.725-.379-8.068-7.329-14.275-15.406-14.275z" fill="#ffbf54"/></g></svg>